<svg xmlns="http://www.w3.org/2000/svg" version="1.1" xmlns:xlink="http://www.w3.org/1999/xlink" width="1500" height="1500" viewBox="0 0 1500 1500"><rect width="1500" height="1500" x="0" y="0" id="background" stroke="transparent" fill="#ffffff"></rect><svg xml:space="preserve" width="1000" height="1000" data-version="2" data-id="lg_L5ukQwkgvGhzJul0QB" viewBox="0 0 600 204" x="250" y="250"><rect width="100%" height="100%" fill="transparent"></rect><circle r="99.82" fill="#fff74f" transform="translate(95.02 90.93)scale(.8885)"></circle><path d="M128.565 152.553q.61 0 1.19-1.23.57-1.23.57-4.05v-42.24q0-2.81-.62-4-.61-1.19-1.23-1.28h28.86q8.19 0 12.76 1.98 4.58 1.98 6.47 5.64 1.89 3.65 1.89 8.84 0 3.26-1.4 6.42-1.41 3.17-4.54 5.46-3.12 2.29-8.4 2.99v.27q5.9 1.58 10.16 5.8 4.27 4.23 7.35 9.24 2.03 3.26 3.7 4.67 1.67 1.41 2.55 1.49h-18.48q1.06-.08 1.72-1.18.66-1.1-.49-3.66-1.85-4.22-5.23-7.52-3.39-3.3-8.5-5.19-5.1-1.89-12.14-1.89h-.97q-2.73 0-3.17.44-.44.44-.44 2.2v11.52q0 2.82.62 4.05t1.23 1.23Zm15.22-26.48h10.83q7.04 0 10.56-2.51 3.52-2.51 3.52-7.35 0-3.26-1.37-5.32-1.36-2.07-4.27-3.04-2.9-.97-7.56-.97h-11.71q-2.73 0-3.17.27-.44.26-.44 2.02v14.52q0 1.76.44 2.07.44.31 3.17.31"></path><rect width="59.4" height="52.8" x="-29.7" y="-26.4" fill="none" rx="0" ry="0" transform="translate(158.68 126.65)"></rect><path d="M188.495 174.033q-5.28 0-8.36-1.06-3.08-1.06-3.96-2.02l1.76-9.24v-2.64q.61 1.84 1.98 3.91 1.36 2.07 3.47 3.48 2.11 1.41 4.75 1.41 3 0 5.11-1.19 2.11-1.19 3.74-3.39 1.63-2.2 3.12-5.1 1.76-3.52 2.2-4.84-.53-.71-1.67-3.26t-2.73-6.2q-1.58-3.66-3.3-7.79-1.71-4.14-3.39-8.01-1.67-3.87-2.99-6.86-1.32-3-2.02-4.32-1.5-2.81-2.73-4.13-1.23-1.32-1.76-1.41h14.34q-.7 0-.92 1.28-.22 1.27.92 4.26.71 1.68 1.94 4.8t2.73 7.04q1.49 3.92 3.08 7.92 1.58 4 2.9 7.44h.09q1.41-3.61 3.08-7.75 1.67-4.13 3.3-8.09t2.9-7.04q1.28-3.08 1.9-4.49 1.23-2.82.96-4.05-.26-1.23-.96-1.32h13.81q-.53.09-1.63 1.28-1.1 1.18-2.5 4-.8 1.5-2.42 5.1l-3.74 8.28q-2.12 4.66-4.32 9.63l-4.13 9.33q-1.94 4.36-3.26 7.17-2.73 5.9-5.76 9.9-3.04 4.01-6.82 5.99-3.79 1.98-8.71 1.98"></path><rect width="55.61" height="62.66" x="-27.8" y="-31.33" fill="none" rx="0" ry="0" transform="translate(204.48 143.2)"></rect><path d="M252.995 153.433q-6.07 0-8.8-2.59-2.73-2.6-2.73-8.49v-24.82h-7.92v-6.16q4.05 0 6.34-1.01t3.25-3.57q.97-2.55.97-7.12h6.34v11.7h16.81q-.62.88-1.19 2.6-.57 1.71-.57 3.56h-15.05v23.5q0 4.04 1.49 5.1 1.5 1.06 3.79 1.06 2.2 0 4.09-.93 1.89-.92 3.34-2.24 1.46-1.32 2.25-2.55v2.72l.88 5.02q-.88.88-2.73 1.89-1.85 1.01-4.49 1.67-2.64.66-6.07.66"></path><rect width="33.71" height="53.76" x="-16.86" y="-26.88" fill="none" rx="0" ry="0" transform="translate(250.9 127.05)"></rect><path d="M272.175 152.553q.62 0 1.19-1.23t.57-4.05v-50.16q0-2.81-.57-4t-1.19-1.28h10.74v24.03l-.18 1.14.18.18q1.32-1.67 3.39-3.17 2.07-1.5 5.15-2.51 3.08-1.01 7.21-1.01 8.19 0 12.54 4.66 4.36 4.67 4.36 14.61v17.51q0 2.82.57 4.05t1.19 1.23h-12.5q.62 0 1.19-1.23t.57-4.05v-17.24q0-5.2-1.32-8.1-1.32-2.9-3.65-4.09t-5.41-1.19q-3.26 0-6.34 1.41t-5.01 4.49q-1.94 3.08-1.94 8.27v16.45q0 2.82.57 4.05t1.19 1.23Z"></path><rect width="45.15" height="60.72" x="-22.57" y="-30.36" fill="none" rx="0" ry="0" transform="translate(295.25 122.7)"></rect><path d="M324.895 152.553q.61 0 1.18-1.23.58-1.23.58-4.05v-29.74q0-2.82-.58-4-.57-1.19-1.18-1.28 3.87 0 6.73-.57 2.86-.57 4-1.19v5.37l-.17 1.14.17.18q1.32-1.67 2.95-3.17 1.63-1.5 4.27-2.51 2.64-1.01 6.77-1.01 8.19 0 12.54 4.66 4.36 4.67 4.36 14.61v17.51q0 2.82.57 4.05t1.19 1.23h-12.5q.62 0 1.19-1.23t.57-4.05v-17.24q0-5.2-1.32-8.1-1.32-2.9-3.65-4.09t-5.41-1.19q-3.26 0-5.9 1.41-2.64 1.41-4.13 4.49-1.5 3.08-1.5 8.27v16.45q0 2.82.57 4.05.58 1.23 1.19 1.23Zm61.68 0q.62 0 1.19-1.23t.57-4.05v-17.24q0-5.2-1.32-8.1-1.32-2.9-3.65-4.09t-5.41-1.19q-5.1 0-8.27 3.21t-3.17 10.87l-3.61-8.8q.27-.97 1.28-2.82 1.01-1.84 2.99-3.82 1.98-1.98 5.19-3.39 3.21-1.41 8.05-1.41 5.46 0 9.24 2.07 3.79 2.07 5.72 6.29 1.94 4.22 1.94 10.91v17.51q0 2.82.57 4.05t1.19 1.23Z"></path><rect width="74.18" height="42.06" x="-37.09" y="-21.03" fill="none" rx="0" ry="0" transform="translate(362.49 132.02)"></rect><path d="M406.645 152.553q.61 0 1.19-1.23.57-1.23.57-4.05v-29.74q0-2.82-.57-4-.58-1.19-1.19-1.28 3.87 0 6.73-.57 2.86-.57 4-1.19v4.4l-.17 1.5.17.17q1.32-1.76 3.22-3.12 1.89-1.37 4.35-2.16 2.47-.79 5.63-.79 4.14 0 7.18 1.19 3.03 1.19 4.35 2.42l-1.76 7.39v2.64q-1.14-1.41-3.3-2.95-2.15-1.54-4.88-2.59-2.73-1.06-5.81-1.06-3.52 0-6.25 2.82-2.73 2.81-2.73 9.32v17.6q0 2.82.58 4.05.57 1.23 1.18 1.23Z"></path><rect width="35.46" height="42.06" x="-17.73" y="-21.03" fill="none" rx="0" ry="0" transform="translate(424.88 132.02)"></rect><path d="M462.085 153.433q-9.59 0-13.47-3.47-3.87-3.48-3.87-9.37 0-4.14 2.07-7.09t6.25-4.53q4.18-1.58 10.6-1.58 4.58 0 7.97.66 3.38.66 5.54 1.54t3.04 1.49q0-5.19-1.28-8.36-1.28-3.17-4.09-4.62-2.82-1.45-7.66-1.45-5.19 0-9.28 1.19-4.09 1.19-6.56 2.55-2.46 1.36-3.08 1.98v-1.76l-.88-6.6q.79-.35 3.43-1.19 2.64-.83 6.96-1.58 4.31-.75 10.12-.75 7.39 0 12.1 2.07 4.7 2.07 6.95 6.33 2.24 4.27 2.24 10.78v17.6q0 2.47.57 3.57.58 1.1 1.19 1.71h-10.73v-2.64l.17-1.67-.17-.09q-1.41 1.32-3.35 2.29-1.93.97-4.22 1.63-2.29.66-4.97 1.01-2.69.35-5.59.35m2.9-6.24q4.75 0 8.19-.97 3.43-.97 5.23-2.6 1.81-1.63 1.81-3.74 0-2.64-3.48-4.49-3.48-1.84-10.78-1.84-6.78 0-9.55 1.76-2.77 1.76-2.77 5.28 0 3.43 2.68 5.01 2.69 1.59 8.67 1.59"></path><rect width="46.2" height="42.94" x="-23.1" y="-21.47" fill="none" rx="0" ry="0" transform="translate(468.35 132.46)"></rect><path d="M521.395 153.433q-9.15 0-14.39-2.81-5.23-2.82-7.35-7.66-2.11-4.84-2.11-10.91 0-10.74 5.85-16.1 5.86-5.37 17.12-5.37 6.86 0 11.53.88 4.66.88 6.42 1.67v1.76l1.76 7.66q-1.76-1.85-6.69-3.83-4.92-1.98-12.4-1.98-3.79 0-7.18 1.27-3.38 1.28-5.45 4.62-2.07 3.35-2.07 9.51 0 5.98 2.2 9.28 2.2 3.3 6.07 4.53 3.87 1.24 8.8 1.24 6.25 0 10.34-1.94t5.5-3.78v1.76l.88 5.98q-1.67 1.41-6.55 2.82-4.89 1.4-12.28 1.4"></path><rect width="42.68" height="42.85" x="-21.34" y="-21.43" fill="none" rx="0" ry="0" transform="translate(519.38 132.5)"></rect><path d="M547.795 152.553q.62 0 1.19-1.23t.57-4.05v-50.16q0-2.81-.57-4t-1.19-1.28h10.74v34.24q0 1.93.48 2.33.48.39 3.12.39 2.73 0 5.11-1.23 2.37-1.23 4.27-3.91 1.89-2.69 2.86-6.91.7-2.91.57-4.14-.13-1.23-.57-1.23h14.34q-.53 0-1.72 1.23-1.18 1.23-2.77 4.14-2.02 3.69-3.78 6.42-1.76 2.73-4.05 4.67-2.29 1.93-5.81 3.43 4.14 1.41 7.17 3.65 3.04 2.24 5.46 5.32t4.8 7.04q1.76 2.82 3.12 4.05t1.98 1.23h-14.26q.53-.08.4-1.49t-1.8-4.67q-1.5-3.08-3.7-5.67-2.2-2.6-5.06-4.14-2.86-1.54-6.56-1.54-2.72 0-3.16.31-.44.31-.44 2.33v9.59q0 2.82.57 4.05t1.19 1.23Z"></path><rect width="45.32" height="60.72" x="-22.66" y="-30.36" fill="none" rx="0" ry="0" transform="translate(570.96 122.7)"></rect><path d="M154.165 201.083q-.23 0-.12-.31.24-.78-1.01-1.34-1.25-.57-3.33-.86-2.09-.29-4.47-.29-1.56 0-3.08.11-1.52.12-2.89.43-.93.2-1.97.57-1.03.37-1.99.64-.95.27-1.65.27-.47 0-.74-.15-.28-.16-.28-.7 0-.55.49-1.27t1.83-1.44q1.35-.73 3.88-1.19.74-.16 1.1-.24.35-.08 1.01-.39l4.62-2.03q2.32-1.01 4.51-2.22 1.67-.93 2.37-1.97.71-1.03.71-2.01 0-1.24-.92-2.14-.92-.9-2.28-1.09-.51-.08-1.02-.12-.5-.04-1.01-.04-2.3 0-4.13.6-1.84.61-2.91 1.43t-1.07 1.4q0 .67 1.32.67.94 0 2.5-.39 1.52-.39 2.65-.94 1.13-.55 1.87-1.29.12-.11.16-.13.04-.02.08.13.04.12.04.31 0 .59-.55 1.12-.54.52-1.32.99t-1.51.76q-.72.29-1.11.41-1.13.27-2.06.41-.94.14-1.64.14-1.33 0-1.95-.37-.63-.37-.63-.96 0-.86 1.06-1.83.78-.7 2.1-1.39 1.33-.68 3.01-1.25 1.67-.56 3.47-.89 1.79-.33 3.47-.33 1.95 0 3.57.54 1.61.55 2.36 1.91.42.74.42 1.56 0 1.17-.91 2.48-.92 1.31-2.87 2.55-2.14 1.37-4.99 2.4-2.85 1.04-5.46 1.93 1.87.04 3.9.32 2.03.27 3.76.85 1.74.59 2.81 1.52 1.07.94 1.07 2.27v.23q0 .12-.04.27-.03.35-.23.35"></path><rect width="24.49" height="19.18" x="-12.24" y="-9.59" fill="none" rx="0" ry="0" transform="translate(145.38 192)"></rect><path d="M163.295 200.623q-2.07 0-3.32-1.12-1.25-1.11-1.25-2.9 0-1.95.9-4.02.9-2.06 2.46-3.98 1.56-1.91 3.51-3.41 1.95-1.5 4.05-2.4 2.11-.89 4.14-.89 2.38 0 4 1.17 1.61 1.17 1.61 3.82 0 1.68-.95 3.57-.96 1.89-2.6 3.68-1.63 1.8-3.7 3.26-2.07 1.46-4.35 2.34-2.28.88-4.5.88m.04-.98q1.48 0 3.14-.64 1.65-.65 3.25-1.78t2.89-2.61q1.28-1.48 2.06-3.14.78-1.66.78-3.33 0-1.49-1.05-2.3-1.05-.82-2.92-.82-1.56 0-3.22.68-1.66.68-3.2 1.87-1.54 1.19-2.75 2.67t-1.91 3.1q-.7 1.62-.7 3.18 0 1.41.95 2.26.96.86 2.68.86"></path><rect width="20.67" height="18.72" x="-10.34" y="-9.36" fill="none" rx="0" ry="0" transform="translate(169.56 191.76)"></rect><path d="M199.365 201.083q-.23 0-.12-.31.24-.78-1.01-1.34-1.25-.57-3.33-.86-2.09-.29-4.47-.29-1.56 0-3.08.11-1.52.12-2.89.43-.93.2-1.97.57-1.03.37-1.98.64-.96.27-1.66.27-.47 0-.74-.15-.28-.16-.28-.7 0-.55.49-1.27t1.83-1.44q1.35-.73 3.88-1.19.75-.16 1.1-.24.35-.08 1.01-.39l4.62-2.03q2.32-1.01 4.51-2.22 1.67-.93 2.38-1.97.7-1.03.7-2.01 0-1.24-.92-2.14-.92-.9-2.28-1.09-.51-.08-1.01-.12-.51-.04-1.02-.04-2.3 0-4.13.6-1.84.61-2.91 1.43t-1.07 1.4q0 .67 1.33.67.93 0 2.49-.39 1.52-.39 2.65-.94 1.13-.55 1.88-1.29.11-.11.15-.13.04-.02.08.13.04.12.04.31 0 .59-.55 1.12-.54.52-1.32.99t-1.5.76q-.73.29-1.12.41-1.13.27-2.06.41-.94.14-1.64.14-1.33 0-1.95-.37-.63-.37-.63-.96 0-.86 1.06-1.83.78-.7 2.1-1.39 1.33-.68 3.01-1.25 1.67-.56 3.47-.89 1.79-.33 3.47-.33 1.95 0 3.57.54 1.62.55 2.36 1.91.43.74.43 1.56 0 1.17-.92 2.48t-2.87 2.55q-2.14 1.37-4.99 2.4-2.85 1.04-5.46 1.93 1.87.04 3.9.32 2.03.27 3.76.85 1.74.59 2.81 1.52 1.07.94 1.07 2.27v.23q0 .12-.03.27-.04.35-.24.35"></path><rect width="24.5" height="19.18" x="-12.25" y="-9.59" fill="none" rx="0" ry="0" transform="translate(190.59 192)"></rect><path d="M206.975 201.203q-2.03 0-3.44-.62-1.4-.63-1.4-2.23 0-.93.64-1.69.65-.76 1.66-1.37 1.02-.6 2.07-1.03 1.13-.43 2.83-.64 1.69-.22 3.14-.22 1.48 0 2.34.2.54.11.54.39 0 .15-.62.15-.39 0-1.39.16-.99.15-2.3.43-1.3.27-2.65.68-1.35.41-2.52.88-1.56.62-2.24 1.25-.68.62-.68 1.17 0 .78 1.33 1.28 1.32.51 3.23.51 1.56 0 3.3-.37 1.73-.37 3.33-1.19 2.34-1.21 3.4-2.4 1.05-1.19 1.05-2.28 0-1.29-1.41-2.46-.81-.66-2.8-1.19-1.99-.52-4.72-.48-.2.19-.39.42-.2.24-.39.43-.24.28-.67.28-.23 0-.42-.12-.2-.12-.2-.31 0-.24.31-.51 1.09-.94 2.71-2.44 1.62-1.5 2.99-2.98-.51-.43-.71-.9-.19-.47-.19-.82 0-.7.31-.85.2-.16.59-.16.74 0 1.73.43 1 .43 1.85.62.67.16 1.47.24.8.07 1.62.07 1.75 0 3.39-.29 1.64-.29 2.71-.84 1.07-.54 1.07-1.24 0-.24.14-.32.13-.07.13.28-.03 1.36-1.03 2.34-.99.97-2.48 1.58-1.48.6-3.12.89-1.63.3-2.96.3-.51 0-.94-.06-.42-.06-.78-.1-1.24-.23-2.1-.7-.78.86-1.72 1.75-.93.9-1.87 1.91.9-.19 1.99-.31 1.09-.12 2.18-.12 1.6 0 3.08.32 1.49.31 2.5 1.13 1.4 1.13 1.4 2.73 0 1.67-1.52 3.47-1.52 1.79-4.01 2.96-.86.39-2.42.86t-3.39.8q-1.84.33-3.55.33"></path><rect width="25.58" height="20.4" x="-12.79" y="-10.2" fill="none" rx="0" ry="0" transform="translate(215.43 191.5)"></rect></svg></svg>